<?xml version="1.0" standalone="no"?>
<!DOCTYPE svg PUBLIC "-//W3C//DTD SVG 20010904//EN"
 "http://www.w3.org/TR/2001/REC-SVG-20010904/DTD/svg10.dtd">
<svg version="1.0" xmlns="http://www.w3.org/2000/svg"
 width="582.000000pt" height="254.000000pt" viewBox="0 0 582.000000 254.000000"
 preserveAspectRatio="xMidYMid meet">

<g transform="translate(0.000000,254.000000) scale(0.100000,-0.100000)"
fill="#000000" stroke="none">
<path d="M70 2518 c-34 -13 -40 -25 -40 -89 l0 -55 82 -75 c46 -42 119 -108
163 -148 44 -40 80 -78 80 -84 0 -9 -43 -13 -145 -15 -175 -3 -182 -7 -178
-91 3 -48 7 -57 28 -68 36 -18 904 -18 940 0 27 14 46 64 36 99 -14 52 -16 53
-177 58 -89 3 -153 9 -155 15 -1 6 60 66 137 135 180 161 199 182 199 225 0
66 -45 113 -92 96 -14 -5 -122 -99 -208 -181 -82 -78 -194 -175 -205 -178 -7
-2 -102 78 -211 177 -109 99 -205 182 -214 184 -9 2 -27 0 -40 -5z"/>
<path d="M157 1795 c-48 -16 -83 -48 -108 -97 -17 -33 -19 -60 -19 -230 0
-218 6 -240 83 -302 l39 -31 377 0 378 0 41 29 c72 49 86 95 90 276 5 197 -5
246 -61 305 -26 27 -57 47 -82 54 -62 17 -689 14 -738 -4z m698 -325 l0 -165
-305 -3 c-168 -1 -315 0 -327 3 -23 5 -23 8 -23 164 0 118 3 161 13 164 6 3
154 5 327 4 l315 -2 0 -165z"/>
<path d="M3794 1760 c-144 -20 -249 -67 -328 -146 -89 -89 -100 -128 -104
-367 -3 -182 -1 -204 19 -264 24 -72 81 -149 144 -194 156 -111 541 -125 732
-26 88 46 168 152 194 257 19 74 19 335 0 418 -34 153 -158 264 -346 307 -79
19 -234 26 -311 15z m194 -294 c15 -8 38 -26 52 -41 25 -26 25 -29 25 -195 0
-166 0 -169 -25 -195 -54 -59 -145 -72 -220 -32 -59 31 -68 61 -69 222 -1 179
11 211 89 247 27 12 120 8 148 -6z"/>
<path d="M2146 1734 c-3 -8 -6 -237 -6 -509 0 -407 2 -495 14 -504 9 -8 68
-11 187 -9 l174 3 3 168 c1 92 6 167 10 166 4 0 61 -68 127 -150 66 -83 128
-159 138 -170 17 -18 33 -19 236 -19 191 0 220 2 225 16 5 13 -22 65 -44 84
-3 3 -37 46 -75 95 -38 50 -118 151 -177 225 -60 74 -108 137 -108 140 0 3 62
80 138 171 236 285 227 272 218 295 -4 11 -41 14 -211 14 l-206 0 -25 -27
c-14 -15 -70 -84 -126 -155 -56 -70 -105 -128 -110 -128 -4 0 -9 69 -10 153
l-3 152 -181 3 c-159 2 -182 0 -188 -14z"/>
<path d="M4585 1740 c-6 -10 13 -157 105 -824 11 -81 20 -152 20 -157 0 -5 9
-18 20 -29 18 -18 33 -20 153 -20 115 0 136 2 150 18 14 16 126 260 141 310
11 34 23 27 44 -30 36 -95 113 -263 129 -280 14 -15 35 -18 148 -18 177 0 168
-10 195 195 12 88 32 239 45 335 59 427 66 484 61 497 -4 10 -41 13 -160 13
-201 0 -186 16 -210 -241 -10 -107 -21 -212 -25 -234 l-8 -40 -12 30 c-17 44
-47 123 -67 178 -9 26 -25 52 -35 57 -26 15 -162 12 -181 -2 -9 -7 -33 -58
-53 -113 -20 -55 -41 -111 -47 -125 -11 -24 -12 -23 -19 20 -3 25 -15 130 -25
234 -24 252 -10 236 -209 236 -87 0 -156 -4 -160 -10z"/>
<path d="M67 1002 c-27 -30 -28 -20 53 -377 52 -230 78 -344 105 -465 14 -63
32 -121 39 -128 19 -20 91 -27 125 -12 32 13 41 36 115 283 15 48 31 87 36 87
8 0 20 -34 80 -230 41 -131 61 -154 133 -147 26 2 55 10 62 18 14 14 42 127
160 654 15 66 36 156 46 200 19 78 19 80 1 105 -15 19 -30 26 -65 28 -26 2
-55 -2 -66 -8 -22 -11 -24 -17 -70 -220 -73 -323 -84 -370 -92 -370 -5 0 -20
39 -34 88 -15 48 -33 105 -40 127 -8 22 -21 67 -30 100 -28 99 -39 115 -85
115 -41 0 -53 -11 -70 -69 -5 -14 -29 -93 -54 -175 -25 -82 -46 -155 -46 -162
0 -13 -18 -29 -25 -22 -2 2 -20 75 -39 163 -81 362 -91 400 -108 417 -25 25
-109 25 -131 0z"/>
</g>
</svg>
