<svg width="253" height="100" viewBox="0 0 200 100" xmlns="http://www.w3.org/2000/svg">
  <!-- Ícone de dúvida -->
  <g transform="translate(10, 10)">
    <path d="M30 60c-8 0-14-6-14-14s6-14 14-14c0-10 8-18 18-18s18 8 18 18c8 0 14 6 14 14s-6 14-14 14H30z" fill="#d0e1f9"/>
    <path d="M45 48c0-3 3-5 6-5s6 2 6 5c0 2-2 3-4 4-2 1-4 2-4 4v3h4v-2c0-2 4-3 6-5s2-4 2-7c0-6-5-9-10-9s-10 3-10 9h4z" fill="#0066cc"/>
    <circle cx="52" cy="70" r="2" fill="#0066cc"/>
  </g>
  
  <!-- Texto "DoubtHub" -->
  <text x="80" y="60" font-family="Arial, sans-serif" font-size="24" fill="#0066cc">DoubtHub</text>
</svg>
